HIERARCHY
ROOT Hips
{
 OFFSET 0.000000 0.000000 0.000000
 CHANNELS 6 Xposition Yposition Zposition Yrotation Xrotation Zrotation
 JOINT Chest
 {
  OFFSET 0.000000 9.585900 0.002600
  CHANNELS 3 Yrotation Xrotation Zrotation
  JOINT Chest2
  {
   OFFSET 0.000000 9.601200 -0.005300
   CHANNELS 3 Yrotation Xrotation Zrotation
   JOINT Chest3
   {
    OFFSET 0.000000 9.561800 0.000000
    CHANNELS 3 Yrotation Xrotation Zrotation
    JOINT Chest4
    {
     OFFSET 0.000000 9.552100 0.000000
     CHANNELS 3 Yrotation Xrotation Zrotation
     JOINT Neck
     {
      OFFSET 0.000000 14.453000 0.000000
      CHANNELS 3 Yrotation Xrotation Zrotation
      JOINT Head
      {
       OFFSET 0.000000 8.936500 -0.011300
       CHANNELS 3 Yrotation Xrotation Zrotation
       End Site
       {
        OFFSET 0.000000 17.073600 -0.006000
       }
      }
     }
     JOINT RightCollar
     {
      OFFSET -2.921100 9.558500 0.000000
      CHANNELS 3 Yrotation Xrotation Zrotation
      JOINT RightShoulder
      {
       OFFSET -13.519700 0.000000 0.000000
       CHANNELS 3 Yrotation Xrotation Zrotation
       JOINT RightElbow
       {
        OFFSET 0.000000 -29.696600 0.000000
        CHANNELS 3 Yrotation Xrotation Zrotation
        JOINT RightWrist
        {
         OFFSET 0.000000 -24.004700 0.000000
         CHANNELS 3 Yrotation Xrotation Zrotation
         End Site
         {
          OFFSET 0.000000 -17.728500 0.000000
         }
        }
       }
      }
     }
     JOINT LeftCollar
     {
      OFFSET 2.921100 9.558500 0.000000
      CHANNELS 3 Yrotation Xrotation Zrotation
      JOINT LeftShoulder
      {
       OFFSET 13.519700 0.000000 0.000000
       CHANNELS 3 Yrotation Xrotation Zrotation
       JOINT LeftElbow
       {
        OFFSET 0.000000 -29.696600 0.000000
        CHANNELS 3 Yrotation Xrotation Zrotation
        JOINT LeftWrist
        {
         OFFSET 0.000000 -24.004700 0.000000
         CHANNELS 3 Yrotation Xrotation Zrotation
         End Site
         {
          OFFSET 0.000000 -17.728500 0.000000
         }
        }
       }
      }
     }
    }
   }
  }
 }
 JOINT RightHip
 {
  OFFSET -7.771700 -0.012900 -0.001300
  CHANNELS 3 Yrotation Xrotation Zrotation
  JOINT RightKnee
  {
   OFFSET 0.000000 -40.869800 0.001200
   CHANNELS 3 Yrotation Xrotation Zrotation
   JOINT RightAnkle
   {
    OFFSET 0.000000 -39.717900 0.002100
    CHANNELS 3 Yrotation Xrotation Zrotation
    JOINT RightToe
    {
     OFFSET 0.000000 -4.965400 11.033500
     CHANNELS 3 Yrotation Xrotation Zrotation
     End Site
     {
      OFFSET 0.000000 -1.423100 5.872300
     }
    }
   }
  }
 }
 JOINT LeftHip
 {
  OFFSET 7.771700 -0.012900 -0.001300
  CHANNELS 3 Yrotation Xrotation Zrotation
  JOINT LeftKnee
  {
   OFFSET 0.000000 -40.869800 0.001200
   CHANNELS 3 Yrotation Xrotation Zrotation
   JOINT LeftAnkle
   {
    OFFSET 0.000000 -39.717900 0.002100
    CHANNELS 3 Yrotation Xrotation Zrotation
    JOINT LeftToe
    {
     OFFSET 0.000000 -4.965400 11.033500
     CHANNELS 3 Yrotation Xrotation Zrotation
     End Site
     {
      OFFSET 0.000000 -1.423100 5.872300
     }
    }
   }
  }
 }
}
MOTION
Frames: 8
Frame Time: 0.008333
-67.584333 63.233811 12.786918 164.715189 -53.164067 -3.221368 7.657208 26.077643 5.047706 1.238854 4.545717 0.419649 1.967614 7.192522 0.712697 6.344417 21.255674 2.953463 4.647781 18.172955 3.973936 7.214377 -2.125224 5.767015 5.246206 5.275992 6.751334 2.653425 -12.377559 -16.606557 -106.879473 -62.852968 143.182653 18.755482 1.581715 1.397872 -9.809153 4.603729 1.137693 -2.828991 -20.844454 14.035394 -45.280847 -54.984461 36.743357 -1.719119 0.371225 -6.512492 -5.168116 -6.922826 10.120667 -25.574541 73.694904 -23.512692 1.045624 -12.976768 -2.389487 -0.366643 0.959533 -0.173973 -3.064944 -13.708382 0.456384 13.365526 60.625973 7.442107 -1.502346 -0.654314 1.309793 -0.359851 -0.894275 -0.119421
-67.586489 63.235454 12.778946 164.690195 -53.162245 -3.208671 7.672201 26.074472 5.054019 1.235128 4.546518 0.419409 1.957017 7.196816 0.716430 6.345959 21.255648 2.946441 4.604811 18.151189 3.928545 7.171114 -2.170102 5.681997 5.272759 5.274423 6.738455 2.625825 -12.368938 -16.604058 -106.896264 -62.842388 143.207384 18.754365 1.599834 1.386720 -9.791672 4.598164 1.144929 -2.720387 -20.760629 13.908561 -45.368716 -55.035902 36.899607 -1.645784 0.441855 -6.477163 -5.153658 -6.923577 10.124460 -25.547944 73.701345 -23.481140 1.022018 -12.971294 -2.392940 -0.344769 0.949606 -0.165734 -3.035803 -13.699690 0.448860 13.355483 60.623602 7.446849 -1.481050 -0.700860 1.338203 -0.372294 -0.853064 -0.148111
-67.579357 63.242409 12.769023 164.611765 -53.195468 -3.210909 7.740941 26.097620 5.130539 1.220703 4.553293 0.422748 1.963517 7.198265 0.710872 6.346459 21.253782 2.937745 4.563084 18.131144 3.884554 7.128019 -2.217203 5.590775 5.303974 5.270770 6.728430 2.594693 -12.367510 -16.596065 -106.899640 -62.843771 143.221141 18.752384 1.600922 1.382309 -9.766022 4.581132 1.192876 -2.603398 -20.665447 13.744073 -45.422006 -55.099170 37.010402 -1.579971 0.513984 -6.447230 -5.112039 -6.886681 10.183502 -25.541455 73.705183 -23.473565 1.055951 -12.965488 -2.384935 -0.377932 0.942873 -0.178568 -2.990745 -13.658733 0.513114 13.313756 60.661857 7.392846 -1.372029 -0.763080 1.408192 -0.457402 -0.835987 -0.194792
-67.580944 63.245659 12.758046 164.564128 -53.199264 -3.191094 7.752325 26.108953 5.149283 1.228643 4.551475 0.418529 1.960304 7.200497 0.712309 6.334434 21.258346 2.931415 4.518368 18.100548 3.822760 7.096634 -2.260374 5.500691 5.346618 5.260179 6.711447 2.558816 -12.366895 -16.585620 -106.900146 -62.850567 143.231555 18.749051 1.598576 1.381855 -9.743632 4.559540 1.209567 -2.470745 -20.574544 13.606978 -45.456797 -55.168018 37.081509 -1.525219 0.592349 -6.418981 -5.089075 -6.882308 10.197693 -25.531377 73.710517 -23.467258 1.053329 -12.952539 -2.380503 -0.376876 0.927050 -0.178556 -2.961399 -13.647741 0.525633 13.300040 60.681661 7.375194 -1.332320 -0.832728 1.427771 -0.479632 -0.800930 -0.205183
-67.584114 63.248564 12.745925 164.527641 -53.199841 -3.172314 7.765794 26.112574 5.165201 1.236174 4.549525 0.409649 1.947537 7.205234 0.723120 6.296401 21.276283 2.944406 4.501404 18.064231 3.738052 7.053639 -2.306585 5.400149 5.421491 5.237220 6.678986 2.519310 -12.366120 -16.587143 -106.888905 -62.851487 143.216496 18.749545 1.602120 1.387463 -9.703131 4.515888 1.199406 -2.319958 -20.479055 13.466892 -45.491298 -55.233091 37.126752 -1.474972 0.676329 -6.389988 -5.069761 -6.881218 10.204837 -25.530019 73.718230 -23.465299 1.038349 -12.945951 -2.381705 -0.362839 0.913312 -0.173726 -2.947985 -13.643557 0.532170 13.291272 60.703147 7.356722 -1.300651 -0.893113 1.438990 -0.490359 -0.779041 -0.212677
-67.586763 63.250474 12.734034 164.492237 -53.193765 -3.158378 7.777410 26.107683 5.188979 1.235236 4.552065 0.404090 1.944804 7.205637 0.727880 6.282974 21.281448 2.945957 4.467413 18.038060 3.674431 7.011717 -2.353355 5.293564 5.453844 5.225203 6.663465 2.503333 -12.365098 -16.584142 -106.878367 -62.857222 143.208202 18.743213 1.601919 1.389386 -9.686037 4.493573 1.188444 -2.163021 -20.386558 13.346266 -45.654217 -55.287593 37.245904 -1.366744 0.805183 -6.346805 -5.050963 -6.885933 10.216957 -25.537788 73.721492 -23.468674 1.022728 -12.940123 -2.387991 -0.344419 0.902646 -0.165703 -2.948527 -13.649162 0.545995 13.305714 60.728120 7.350813 -1.275750 -0.953933 1.445363 -0.501534 -0.763392 -0.221823
-67.589503 63.251936 12.721762 164.474315 -53.186672 -3.155694 7.779158 26.100337 5.207853 1.234544 4.554218 0.407047 1.938629 7.207765 0.728113 6.270438 21.286425 2.949835 4.433361 18.011533 3.607909 6.970667 -2.400743 5.181562 5.483983 5.211692 6.650174 2.491951 -12.362532 -16.582073 -106.871126 -62.864817 143.203946 18.748425 1.608580 1.392197 -9.669828 4.467254 1.174311 -1.999480 -20.284093 13.230541 -45.627994 -55.350594 37.207749 -1.349564 0.884933 -6.307146 -5.042868 -6.891268 10.227056 -25.536705 73.729318 -23.465441 1.003901 -12.936482 -2.393365 -0.330147 0.893997 -0.154871 -2.959126 -13.656875 0.557285 13.340919 60.755462 7.363739 -1.255441 -1.028806 1.429670 -0.526542 -0.741355 -0.216943
-67.590667 63.252154 12.710364 164.468937 -53.173392 -3.170170 7.782305 26.085425 5.229399 1.210454 4.556635 0.428145 1.952276 7.208551 0.711254 6.262265 21.289193 2.953936 4.407693 17.992055 3.556986 6.921258 -2.453654 5.058952 5.505033 5.202240 6.642493 2.487543 -12.363574 -16.574793 -106.867111 -62.879468 143.201076 18.750993 1.614228 1.390348 -9.662385 4.426857 1.182868 -1.829119 -20.154708 13.102531 -45.579004 -55.410336 37.133923 -1.336258 0.965398 -6.246968 -5.043637 -6.902793 10.243802 -25.538464 73.739453 -23.460728 0.985831 -12.931949 -2.403706 -0.312261 0.881424 -0.145234 -2.987549 -13.671152 0.586113 13.385767 60.790108 7.381644 -1.261654 -1.129059 1.345204 -0.536654 -0.703305 -0.158554
